<svg width="900" height="396" viewBox="0 0 900 396" xmlns="http://www.w3.org/2000/svg" preserveAspectRatio="xMidYMid meet">
<defs>
  <linearGradient id="gPrimary" x1="0%" y1="0%" x2="100%" y2="100%">
    <stop offset="0%" stop-color="#c084fc"/>
    <stop offset="100%" stop-color="#67e8f9"/>
  </linearGradient>
  <linearGradient id="gBorder" x1="0%" y1="0%" x2="100%" y2="100%">
    <stop offset="0%"   stop-color="#c084fc" stop-opacity="0.95"/>
    <stop offset="40%"  stop-color="#67e8f9" stop-opacity="0.65"/>
    <stop offset="100%" stop-color="#f472b6" stop-opacity="0.95"/>
    <animateTransform attributeName="gradientTransform" type="rotate"
      values="0 .5 .5;360 .5 .5" dur="5s" repeatCount="indefinite"/>
  </linearGradient>
  <linearGradient id="gShimmer" x1="-100%" y1="0%" x2="200%" y2="0%">
    <stop offset="0%"   stop-color="#ffffff" stop-opacity="0"/>
    <stop offset="50%"  stop-color="#ffffff" stop-opacity="0.07"/>
    <stop offset="100%" stop-color="#ffffff" stop-opacity="0"/>
    <animate attributeName="x1" values="-100%;200%;-100%" dur="4s" repeatCount="indefinite"/>
    <animate attributeName="x2" values="0%;400%;0%"       dur="4s" repeatCount="indefinite"/>
  </linearGradient>
  <linearGradient id="gFire" x1="0%" y1="100%" x2="0%" y2="0%">
    <stop offset="0%"   stop-color="#dc2626"/>
    <stop offset="35%"  stop-color="#ea580c"/>
    <stop offset="70%"  stop-color="#fbbf24"/>
    <stop offset="100%" stop-color="#fef08a"/>
  </linearGradient>
  <linearGradient id="gRank" x1="0%" y1="0%" x2="100%" y2="0%">
    <stop offset="0%"   stop-color="#f472b6"/>
    <stop offset="50%"  stop-color="#c084fc"/>
    <stop offset="100%" stop-color="#67e8f9"/>
  </linearGradient>
  <filter id="fFog" x="-50%" y="-50%" width="200%" height="200%">
    <feGaussianBlur stdDeviation="42"/>
  </filter>
  <filter id="fCard" x="-8%" y="-8%" width="116%" height="122%">
    <feDropShadow dx="0"  dy="6"  stdDeviation="10" flood-color="#7c3aed" flood-opacity="0.28"/>
    <feDropShadow dx="0"  dy="20" stdDeviation="30" flood-color="#000000" flood-opacity="0.55"/>
  </filter>
  <filter id="fGlow" x="-25%" y="-60%" width="150%" height="220%">
    <feGaussianBlur stdDeviation="9" result="b1"/>
    <feGaussianBlur stdDeviation="4" result="b2"/>
    <feMerge><feMergeNode in="b1"/><feMergeNode in="b2"/><feMergeNode in="SourceGraphic"/></feMerge>
  </filter>
  <filter id="fNumGlow" x="-20%" y="-25%" width="140%" height="150%">
    <feGaussianBlur stdDeviation="6" result="b"/>
    <feFlood flood-color="#c084fc" result="c"/>
    <feComposite in="c" in2="b" operator="in" result="g"/>
    <feMerge><feMergeNode in="g"/><feMergeNode in="g"/><feMergeNode in="SourceGraphic"/></feMerge>
  </filter>
  <filter id="fDot" x="-80%" y="-80%" width="260%" height="260%">
    <feGaussianBlur stdDeviation="2.5"/>
  </filter>
  <filter id="fFireGlow" x="-100%" y="-100%" width="300%" height="300%">
    <feGaussianBlur stdDeviation="14" result="b"/>
    <feFlood flood-color="#ea580c" result="c"/>
    <feComposite in="c" in2="b" operator="in" result="g"/>
    <feMerge><feMergeNode in="g"/><feMergeNode in="g"/><feMergeNode in="SourceGraphic"/></feMerge>
  </filter>
  <filter id="fSnake" x="-60%" y="-60%" width="220%" height="220%">
    <feGaussianBlur stdDeviation="4" result="b"/>
    <feFlood flood-color="#4ade80" result="c"/>
    <feComposite in="c" in2="b" operator="in" result="g"/>
    <feMerge><feMergeNode in="g"/><feMergeNode in="g"/><feMergeNode in="SourceGraphic"/></feMerge>
  </filter>
  <filter id="fHead" x="-80%" y="-80%" width="260%" height="260%">
    <feGaussianBlur stdDeviation="6" result="b"/>
    <feFlood flood-color="#86efac" result="c"/>
    <feComposite in="c" in2="b" operator="in" result="g"/>
    <feMerge><feMergeNode in="g"/><feMergeNode in="g"/><feMergeNode in="SourceGraphic"/></feMerge>
  </filter>
  <filter id="fGold" x="-50%" y="-50%" width="200%" height="200%">
    <feGaussianBlur stdDeviation="5" result="b"/>
    <feFlood flood-color="#fbbf24" result="c"/>
    <feComposite in="c" in2="b" operator="in" result="g"/>
    <feMerge><feMergeNode in="g"/><feMergeNode in="SourceGraphic"/></feMerge>
  </filter>
  <filter id="fLineGlow" x="-10%" y="-40%" width="120%" height="180%">
    <feGaussianBlur stdDeviation="3" result="b"/>
    <feMerge><feMergeNode in="b"/><feMergeNode in="b"/><feMergeNode in="SourceGraphic"/></feMerge>
  </filter>
</defs>
<rect width="900" height="396" fill="#020c18"/>
<ellipse cx="108" cy="297"
  rx="180" ry="218"
  fill="#7c3aed" opacity="0.16" filter="url(#fFog)">
  <animate attributeName="cx" values="108;171;108" dur="9s" repeatCount="indefinite"/>
</ellipse>
<ellipse cx="792" cy="87"
  rx="162" ry="178"
  fill="#0891b2" opacity="0.12" filter="url(#fFog)">
  <animate attributeName="cy" values="87;150;87" dur="7s" repeatCount="indefinite"/>
</ellipse>
<ellipse cx="450" cy="356"
  rx="126" ry="111"
  fill="#db2777" opacity="0.07" filter="url(#fFog)">
  <animate attributeName="opacity" values="0.07;0.12;0.07" dur="5.5s" repeatCount="indefinite"/>
</ellipse>

<rect x="57"   y="17"   width="800" height="376" rx="24" fill="#0a0318" opacity="0.92"/>
<rect x="53.5" y="13.5" width="800" height="376" rx="24" fill="#06011a"  opacity="0.70"/>
<rect x="50"     y="10"     width="800" height="376" rx="24" fill="#07031a"
      stroke="url(#gBorder)" stroke-width="1.6" filter="url(#fCard)"/>
<rect x="52"   y="12"   width="796" height="3.5" rx="1.75" fill="#ffffff" opacity="0.13"/>
<rect x="52"   y="382" width="796" height="2"   rx="1"    fill="#000000" opacity="0.22"/>
<rect x="50"     y="10"     width="800" height="376" rx="24"   fill="url(#gShimmer)"/>

<text x="450" y="46" text-anchor="middle"
  font-family="'Segoe UI',system-ui,sans-serif" font-size="15" font-weight="800"
  letter-spacing="3" fill="url(#gPrimary)" filter="url(#fGlow)">🧬 MOST USED LANGUAGES</text>

<!-- 3D Donut chart -->

<path d="M 152.92 104.02 A 88 88 0 0 1 217.24 249.93 L 194.66 230.18 A 58 58 0 0 0 152.27 134.01 Z" fill="#f7df1e" opacity="0.20"/>
<path d="M 149.96 98.02 A 90 90 0 0 1 215.75 247.25 L 193.16 227.50 A 60 60 0 0 0 149.31 128.01 Z" fill="#f7df1e" opacity="0.88">
  <animate attributeName="opacity" values="0.88;1;0.88" dur="2.4s" repeatCount="indefinite"/>
</path>
<path d="M 214.65 252.77 A 88 88 0 0 1 94.23 259.24 L 113.58 236.32 A 58 58 0 0 0 192.95 232.05 Z" fill="#3178c6" opacity="0.20"/>
<path d="M 213.10 250.15 A 90 90 0 0 1 89.94 256.76 L 109.29 233.84 A 60 60 0 0 0 191.40 229.43 Z" fill="#3178c6" opacity="0.88">
  <animate attributeName="opacity" values="0.88;1;0.88" dur="2.6999999999999997s" repeatCount="indefinite"/>
</path>
<path d="M 91.35 256.70 A 88 88 0 0 1 66.48 216.51 L 95.30 208.16 A 58 58 0 0 0 111.68 234.64 Z" fill="#7f52ff" opacity="0.20"/>
<path d="M 86.99 254.17 A 90 90 0 0 1 61.56 213.07 L 90.37 204.71 A 60 60 0 0 0 107.33 232.11 Z" fill="#7f52ff" opacity="0.88">
  <animate attributeName="opacity" values="0.88;1;0.88" dur="3s" repeatCount="indefinite"/>
</path>
<path d="M 65.49 212.80 A 88 88 0 0 1 65.18 172.55 L 94.43 179.18 A 58 58 0 0 0 94.64 205.71 Z" fill="#3776ab" opacity="0.20"/>
<path d="M 60.55 209.28 A 90 90 0 0 1 60.23 168.11 L 89.48 174.74 A 60 60 0 0 0 89.70 202.18 Z" fill="#3776ab" opacity="0.88">
  <animate attributeName="opacity" values="0.88;1;0.88" dur="3.3s" repeatCount="indefinite"/>
</path>
<path d="M 66.11 168.82 A 88 88 0 0 1 82.44 136.83 L 105.81 155.64 A 58 58 0 0 0 95.05 176.72 Z" fill="#e34c26" opacity="0.20"/>
<path d="M 61.18 164.30 A 90 90 0 0 1 77.88 131.58 L 101.25 150.39 A 60 60 0 0 0 90.12 172.20 Z" fill="#e34c26" opacity="0.88">
  <animate attributeName="opacity" values="0.88;1;0.88" dur="3.5999999999999996s" repeatCount="indefinite"/>
</path>
<path d="M 84.91 133.90 A 88 88 0 0 1 103.89 117.67 L 119.95 143.01 A 58 58 0 0 0 107.44 153.70 Z" fill="#555599" opacity="0.20"/>
<path d="M 80.41 128.58 A 90 90 0 0 1 99.82 111.98 L 115.88 137.32 A 60 60 0 0 0 102.94 148.38 Z" fill="#555599" opacity="0.88">
  <animate attributeName="opacity" values="0.88;1;0.88" dur="3.9s" repeatCount="indefinite"/>
</path>
<path d="M 107.18 115.69 A 88 88 0 0 1 127.69 107.14 L 135.64 136.07 A 58 58 0 0 0 122.12 141.70 Z" fill="#8b949e" opacity="0.20"/>
<path d="M 103.18 109.95 A 90 90 0 0 1 124.16 101.21 L 132.11 130.14 A 60 60 0 0 0 118.12 135.97 Z" fill="#8b949e" opacity="0.88">
  <animate attributeName="opacity" values="0.88;1;0.88" dur="4.199999999999999s" repeatCount="indefinite"/>
</path>
<path d="M 131.41 106.21 A 88 88 0 0 1 149.08 104.02 L 149.73 134.01 A 58 58 0 0 0 138.09 135.45 Z" fill="#264de4" opacity="0.20"/>
<path d="M 127.97 100.26 A 90 90 0 0 1 146.04 98.02 L 146.69 128.01 A 60 60 0 0 0 134.65 129.51 Z" fill="#264de4" opacity="0.88">
  <animate attributeName="opacity" values="0.88;1;0.88" dur="4.5s" repeatCount="indefinite"/>
</path>
<!-- Donut center hole -->
<circle cx="148" cy="188" r="56" fill="#07031a" opacity="0.97"/>
<text x="148" y="182" text-anchor="middle"
  font-family="'Segoe UI',system-ui,sans-serif" font-size="9" fill="#9ca3af" letter-spacing="1">LANG</text>
<text x="148" y="200" text-anchor="middle"
  font-family="'Segoe UI',system-ui,sans-serif" font-size="16" font-weight="900"
  fill="url(#gPrimary)" filter="url(#fNumGlow)">8</text>

<!-- Bar chart -->

<g transform="translate(290,58)">
  <circle cx="5"   cy="7"  r="5.5" fill="#f7df1e" filter="url(#fDot)"/>
  <text x="17" y="12" font-family="'Segoe UI',system-ui,sans-serif"
    font-size="12" font-weight="700" fill="#f7df1e">JavaScript</text>
  <text x="570" y="12" text-anchor="end"
    font-family="'Segoe UI',system-ui,sans-serif" font-size="11" fill="#6b7280">36.6%</text>
  <rect x="0" y="18" width="570" height="11" rx="5.5" fill="#0a1530"/>
  <rect x="2" y="21" width="562"    height="6"  rx="3"   fill="#f7df1e" opacity="0.22"/>
  <rect x="0" y="18" width="0"            height="11" rx="5.5" fill="#f7df1e">
    <animate attributeName="width" from="0" to="564" dur="1.3s" fill="freeze" begin="0.05s"/>
  </rect>
  <rect x="-60" y="18" width="55" height="11" rx="5.5" fill="#fff" opacity="0">
    <animate attributeName="x"       from="-60"    to="564"        dur="1.3s" fill="freeze" begin="0.05s"/>
    <animate attributeName="opacity" values="0;0.3;0"               dur="1.3s" fill="freeze" begin="0.05s"/>
  </rect>
</g>
<g transform="translate(290,96)">
  <circle cx="5"   cy="7"  r="5.5" fill="#3178c6" filter="url(#fDot)"/>
  <text x="17" y="12" font-family="'Segoe UI',system-ui,sans-serif"
    font-size="12" font-weight="700" fill="#3178c6">TypeScript</text>
  <text x="570" y="12" text-anchor="end"
    font-family="'Segoe UI',system-ui,sans-serif" font-size="11" fill="#6b7280">24.6%</text>
  <rect x="0" y="18" width="570" height="11" rx="5.5" fill="#0a1530"/>
  <rect x="2" y="21" width="377"    height="6"  rx="3"   fill="#3178c6" opacity="0.22"/>
  <rect x="0" y="18" width="0"            height="11" rx="5.5" fill="#3178c6">
    <animate attributeName="width" from="0" to="379" dur="1.3s" fill="freeze" begin="0.16999999999999998s"/>
  </rect>
  <rect x="-60" y="18" width="55" height="11" rx="5.5" fill="#fff" opacity="0">
    <animate attributeName="x"       from="-60"    to="379"        dur="1.3s" fill="freeze" begin="0.16999999999999998s"/>
    <animate attributeName="opacity" values="0;0.3;0"               dur="1.3s" fill="freeze" begin="0.16999999999999998s"/>
  </rect>
</g>
<g transform="translate(290,134)">
  <circle cx="5"   cy="7"  r="5.5" fill="#7f52ff" filter="url(#fDot)"/>
  <text x="17" y="12" font-family="'Segoe UI',system-ui,sans-serif"
    font-size="12" font-weight="700" fill="#7f52ff">Kotlin</text>
  <text x="570" y="12" text-anchor="end"
    font-family="'Segoe UI',system-ui,sans-serif" font-size="11" fill="#6b7280">9.3%</text>
  <rect x="0" y="18" width="570" height="11" rx="5.5" fill="#0a1530"/>
  <rect x="2" y="21" width="141"    height="6"  rx="3"   fill="#7f52ff" opacity="0.22"/>
  <rect x="0" y="18" width="0"            height="11" rx="5.5" fill="#7f52ff">
    <animate attributeName="width" from="0" to="143" dur="1.3s" fill="freeze" begin="0.29s"/>
  </rect>
  <rect x="-60" y="18" width="55" height="11" rx="5.5" fill="#fff" opacity="0">
    <animate attributeName="x"       from="-60"    to="143"        dur="1.3s" fill="freeze" begin="0.29s"/>
    <animate attributeName="opacity" values="0;0.3;0"               dur="1.3s" fill="freeze" begin="0.29s"/>
  </rect>
</g>
<g transform="translate(290,172)">
  <circle cx="5"   cy="7"  r="5.5" fill="#3776ab" filter="url(#fDot)"/>
  <text x="17" y="12" font-family="'Segoe UI',system-ui,sans-serif"
    font-size="12" font-weight="700" fill="#3776ab">Python</text>
  <text x="570" y="12" text-anchor="end"
    font-family="'Segoe UI',system-ui,sans-serif" font-size="11" fill="#6b7280">8%</text>
  <rect x="0" y="18" width="570" height="11" rx="5.5" fill="#0a1530"/>
  <rect x="2" y="21" width="121"    height="6"  rx="3"   fill="#3776ab" opacity="0.22"/>
  <rect x="0" y="18" width="0"            height="11" rx="5.5" fill="#3776ab">
    <animate attributeName="width" from="0" to="123" dur="1.3s" fill="freeze" begin="0.41s"/>
  </rect>
  <rect x="-60" y="18" width="55" height="11" rx="5.5" fill="#fff" opacity="0">
    <animate attributeName="x"       from="-60"    to="123"        dur="1.3s" fill="freeze" begin="0.41s"/>
    <animate attributeName="opacity" values="0;0.3;0"               dur="1.3s" fill="freeze" begin="0.41s"/>
  </rect>
</g>
<g transform="translate(290,210)">
  <circle cx="5"   cy="7"  r="5.5" fill="#e34c26" filter="url(#fDot)"/>
  <text x="17" y="12" font-family="'Segoe UI',system-ui,sans-serif"
    font-size="12" font-weight="700" fill="#e34c26">HTML</text>
  <text x="570" y="12" text-anchor="end"
    font-family="'Segoe UI',system-ui,sans-serif" font-size="11" fill="#6b7280">7.2%</text>
  <rect x="0" y="18" width="570" height="11" rx="5.5" fill="#0a1530"/>
  <rect x="2" y="21" width="109"    height="6"  rx="3"   fill="#e34c26" opacity="0.22"/>
  <rect x="0" y="18" width="0"            height="11" rx="5.5" fill="#e34c26">
    <animate attributeName="width" from="0" to="111" dur="1.3s" fill="freeze" begin="0.53s"/>
  </rect>
  <rect x="-60" y="18" width="55" height="11" rx="5.5" fill="#fff" opacity="0">
    <animate attributeName="x"       from="-60"    to="111"        dur="1.3s" fill="freeze" begin="0.53s"/>
    <animate attributeName="opacity" values="0;0.3;0"               dur="1.3s" fill="freeze" begin="0.53s"/>
  </rect>
</g>
<g transform="translate(290,248)">
  <circle cx="5"   cy="7"  r="5.5" fill="#555599" filter="url(#fDot)"/>
  <text x="17" y="12" font-family="'Segoe UI',system-ui,sans-serif"
    font-size="12" font-weight="700" fill="#555599">C</text>
  <text x="570" y="12" text-anchor="end"
    font-family="'Segoe UI',system-ui,sans-serif" font-size="11" fill="#6b7280">5.2%</text>
  <rect x="0" y="18" width="570" height="11" rx="5.5" fill="#0a1530"/>
  <rect x="2" y="21" width="78"    height="6"  rx="3"   fill="#555599" opacity="0.22"/>
  <rect x="0" y="18" width="0"            height="11" rx="5.5" fill="#555599">
    <animate attributeName="width" from="0" to="80" dur="1.3s" fill="freeze" begin="0.65s"/>
  </rect>
  <rect x="-60" y="18" width="55" height="11" rx="5.5" fill="#fff" opacity="0">
    <animate attributeName="x"       from="-60"    to="80"        dur="1.3s" fill="freeze" begin="0.65s"/>
    <animate attributeName="opacity" values="0;0.3;0"               dur="1.3s" fill="freeze" begin="0.65s"/>
  </rect>
</g>
<g transform="translate(290,286)">
  <circle cx="5"   cy="7"  r="5.5" fill="#8b949e" filter="url(#fDot)"/>
  <text x="17" y="12" font-family="'Segoe UI',system-ui,sans-serif"
    font-size="12" font-weight="700" fill="#8b949e">ASP.NET</text>
  <text x="570" y="12" text-anchor="end"
    font-family="'Segoe UI',system-ui,sans-serif" font-size="11" fill="#6b7280">4.7%</text>
  <rect x="0" y="18" width="570" height="11" rx="5.5" fill="#0a1530"/>
  <rect x="2" y="21" width="70"    height="6"  rx="3"   fill="#8b949e" opacity="0.22"/>
  <rect x="0" y="18" width="0"            height="11" rx="5.5" fill="#8b949e">
    <animate attributeName="width" from="0" to="72" dur="1.3s" fill="freeze" begin="0.77s"/>
  </rect>
  <rect x="-60" y="18" width="55" height="11" rx="5.5" fill="#fff" opacity="0">
    <animate attributeName="x"       from="-60"    to="72"        dur="1.3s" fill="freeze" begin="0.77s"/>
    <animate attributeName="opacity" values="0;0.3;0"               dur="1.3s" fill="freeze" begin="0.77s"/>
  </rect>
</g>
<g transform="translate(290,324)">
  <circle cx="5"   cy="7"  r="5.5" fill="#264de4" filter="url(#fDot)"/>
  <text x="17" y="12" font-family="'Segoe UI',system-ui,sans-serif"
    font-size="12" font-weight="700" fill="#264de4">CSS</text>
  <text x="570" y="12" text-anchor="end"
    font-family="'Segoe UI',system-ui,sans-serif" font-size="11" fill="#6b7280">3.9%</text>
  <rect x="0" y="18" width="570" height="11" rx="5.5" fill="#0a1530"/>
  <rect x="2" y="21" width="58"    height="6"  rx="3"   fill="#264de4" opacity="0.22"/>
  <rect x="0" y="18" width="0"            height="11" rx="5.5" fill="#264de4">
    <animate attributeName="width" from="0" to="60" dur="1.3s" fill="freeze" begin="0.89s"/>
  </rect>
  <rect x="-60" y="18" width="55" height="11" rx="5.5" fill="#fff" opacity="0">
    <animate attributeName="x"       from="-60"    to="60"        dur="1.3s" fill="freeze" begin="0.89s"/>
    <animate attributeName="opacity" values="0;0.3;0"               dur="1.3s" fill="freeze" begin="0.89s"/>
  </rect>
</g>
</svg>